<svg width="12" height="9" viewBox="0 0 12 9" fill="none" xmlns="http://www.w3.org/2000/svg">
<path fill-rule="evenodd" clip-rule="evenodd" d="M3.6 0.94734C3.6 1.00002 3.5775 1.04312 3.55 1.04312C3.5225 1.04312 3.5 1.08622 3.5 1.13889C3.5 1.19157 3.4775 1.23467 3.45 1.23467C3.4225 1.23467 3.4 1.29932 3.4 1.37833C3.4 1.45735 3.3775 1.522 3.35 1.522C3.3225 1.522 3.3 1.58665 3.3 1.66566C3.3 1.74468 3.2775 1.80933 3.25 1.80933C3.2225 1.80933 3.2 1.85243 3.2 1.90511C3.2 1.95778 3.1775 2.00088 3.15 2.00088C3.1225 2.00088 3.1 2.06553 3.1 2.14455C3.1 2.22356 3.0775 2.28821 3.05 2.28821C3.0225 2.28821 3 2.33131 3 2.38399C3 2.43667 2.9775 2.47977 2.95 2.47977C2.9225 2.47977 2.9 2.54442 2.9 2.62343C2.9 2.70245 2.8775 2.7671 2.85 2.7671C2.8225 2.7671 2.8 2.8102 2.8 2.86287C2.8 2.91555 2.7775 2.95865 2.75 2.95865C2.7225 2.95865 2.7 3.0233 2.7 3.10231C2.7 3.18133 2.6775 3.24598 2.65 3.24598C2.6225 3.24598 2.6 3.28908 2.6 3.34176C2.6 3.39443 2.5775 3.43753 2.55 3.43753C2.5225 3.43753 2.5 3.50218 2.5 3.5812C2.5 3.66021 2.4775 3.72486 2.45 3.72486C2.4225 3.72486 2.4 3.76796 2.4 3.82064C2.4 3.87332 2.3775 3.91642 2.35 3.91642C2.3225 3.91642 2.3 3.98107 2.3 4.06008C2.3 4.1391 2.2775 4.20375 2.25 4.20375C2.2225 4.20375 2.2 4.24685 2.2 4.29952C2.2 4.3522 2.1775 4.3953 2.15 4.3953C2.1225 4.3953 2.1 4.45995 2.1 4.53897C2.1 4.61798 2.0775 4.68263 2.05 4.68263C2.0225 4.68263 2 4.72573 2 4.77841C2 4.83108 1.9775 4.87418 1.95 4.87418C1.9225 4.87418 1.9 4.93883 1.9 5.01785C1.9 5.09686 1.8775 5.16151 1.85 5.16151C1.8225 5.16151 1.8 5.20461 1.8 5.25729C1.8 5.30997 1.7775 5.35307 1.75 5.35307C1.7225 5.35307 1.7 5.41772 1.7 5.49673C1.7 5.57575 1.6775 5.6404 1.65 5.6404C1.6225 5.6404 1.6 5.6835 1.6 5.73617C1.6 5.78885 1.5775 5.83195 1.55 5.83195C1.5225 5.83195 1.5 5.8966 1.5 5.97562C1.5 6.05463 1.4775 6.11928 1.45 6.11928C1.4225 6.11928 1.4 6.18393 1.4 6.26295C1.4 6.34196 1.3775 6.40661 1.35 6.40661C1.3225 6.40661 1.3 6.44971 1.3 6.50239C1.3 6.55506 1.2775 6.59816 1.25 6.59816C1.2225 6.59816 1.2 6.66281 1.2 6.74183C1.2 6.82084 1.1775 6.88549 1.15 6.88549C1.1225 6.88549 1.1 6.92859 1.1 6.98127C1.1 7.03395 1.0775 7.07705 1.05 7.07705C1.0225 7.07705 1 7.1417 1 7.22071C1 7.29973 0.9775 7.36438 0.95 7.36438C0.9225 7.36438 0.9 7.39823 0.9 7.43961C0.9 7.59798 0.76785 7.65171 0.37855 7.65171H0V8.13059V8.60947H2.1H4.2V8.13059V7.65171H3.9C3.63335 7.65171 3.6 7.64108 3.6 7.55593C3.6 7.50325 3.6225 7.46015 3.65 7.46015C3.6775 7.46015 3.7 7.3955 3.7 7.31649C3.7 7.23747 3.7225 7.17282 3.75 7.17282C3.7775 7.17282 3.8 7.10817 3.8 7.02916C3.8 6.95014 3.8225 6.88549 3.85 6.88549C3.8775 6.88549 3.9 6.82084 3.9 6.74183C3.9 6.66281 3.9225 6.59816 3.95 6.59816C3.9775 6.59816 4 6.53351 4 6.4545C4 6.37548 4.0225 6.31083 4.05 6.31083C4.0775 6.31083 4.1 6.25543 4.1 6.18771C4.1 6.11995 4.13375 6.03222 4.175 5.99271C4.24165 5.92888 4.25835 5.92888 4.325 5.99271C4.36625 6.03222 4.4 6.0984 4.4 6.13982C4.4 6.1812 4.4225 6.21506 4.45 6.21506C4.4775 6.21506 4.5 6.25342 4.5 6.30025C4.5 6.34713 4.545 6.41652 4.6 6.4545C4.655 6.49247 4.7 6.56186 4.7 6.60875C4.7 6.65558 4.7225 6.69394 4.75 6.69394C4.7775 6.69394 4.8 6.7323 4.8 6.77913C4.8 6.82602 4.845 6.89541 4.9 6.93338C4.955 6.97136 5 7.04075 5 7.08763C5 7.13446 5.0225 7.17282 5.05 7.17282C5.0775 7.17282 5.1 7.21118 5.1 7.25802C5.1 7.3049 5.145 7.37429 5.2 7.41227C5.255 7.45024 5.3 7.51963 5.3 7.56651C5.3 7.61335 5.3225 7.65171 5.35 7.65171C5.3775 7.65171 5.4 7.69007 5.4 7.7369C5.4 7.78378 5.445 7.85317 5.5 7.89115C5.555 7.92912 5.6 7.99851 5.6 8.0454C5.6 8.09223 5.6225 8.13059 5.65 8.13059C5.6775 8.13059 5.7 8.16895 5.7 8.21578C5.7 8.26267 5.745 8.33206 5.8 8.37003C5.855 8.40801 5.9 8.4774 5.9 8.52428C5.9 8.57753 5.93745 8.60947 6 8.60947C6.06665 8.60947 6.1 8.57753 6.1 8.5137C6.1 8.46102 6.1225 8.41792 6.15 8.41792C6.1775 8.41792 6.2 8.37956 6.2 8.33273C6.2 8.28584 6.245 8.21645 6.3 8.17848C6.355 8.1405 6.4 8.07111 6.4 8.02423C6.4 7.9774 6.4225 7.93904 6.45 7.93904C6.4775 7.93904 6.5 7.90068 6.5 7.85384C6.5 7.80696 6.545 7.73757 6.6 7.6996C6.655 7.66162 6.7 7.59697 6.7 7.55593C6.7 7.51489 6.745 7.45024 6.8 7.41227C6.855 7.37429 6.9 7.3049 6.9 7.25802C6.9 7.21118 6.9225 7.17282 6.95 7.17282C6.9775 7.17282 7 7.13446 7 7.08763C7 7.04075 7.045 6.97136 7.1 6.93338C7.155 6.89541 7.2 6.82602 7.2 6.77913C7.2 6.7323 7.2225 6.69394 7.25 6.69394C7.2775 6.69394 7.3 6.65558 7.3 6.60875C7.3 6.56186 7.345 6.49247 7.4 6.4545C7.455 6.41652 7.5 6.34713 7.5 6.30025C7.5 6.25342 7.5225 6.21506 7.55 6.21506C7.5775 6.21506 7.6 6.1812 7.6 6.13982C7.6 6.06723 7.71275 5.92773 7.77145 5.92773C7.78715 5.92773 7.8 5.97083 7.8 6.0235C7.8 6.07618 7.8225 6.11928 7.85 6.11928C7.8775 6.11928 7.9 6.16238 7.9 6.21506C7.9 6.26773 7.9225 6.31083 7.95 6.31083C7.9775 6.31083 8 6.37548 8 6.4545C8 6.53351 8.0225 6.59816 8.05 6.59816C8.0775 6.59816 8.1 6.66281 8.1 6.74183C8.1 6.82084 8.1225 6.88549 8.15 6.88549C8.1775 6.88549 8.2 6.95014 8.2 7.02916C8.2 7.10817 8.2225 7.17282 8.25 7.17282C8.2775 7.17282 8.3 7.2357 8.3 7.31251C8.3 7.38933 8.3279 7.46106 8.36205 7.47198C8.4072 7.4864 8.40135 7.5136 8.34065 7.57173C8.287 7.62312 8.1754 7.65171 8.02855 7.65171H7.8V8.13059V8.60947H9.9H12V8.13059V7.65171H11.6214C11.2321 7.65171 11.1 7.59798 11.1 7.43961C11.1 7.39823 11.0775 7.36438 11.05 7.36438C11.0225 7.36438 11 7.29973 11 7.22071C11 7.1417 10.9775 7.07705 10.95 7.07705C10.9225 7.07705 10.9 7.03395 10.9 6.98127C10.9 6.92859 10.8775 6.88549 10.85 6.88549C10.8225 6.88549 10.8 6.82084 10.8 6.74183C10.8 6.66281 10.7775 6.59816 10.75 6.59816C10.7225 6.59816 10.7 6.55506 10.7 6.50239C10.7 6.44971 10.6775 6.40661 10.65 6.40661C10.6225 6.40661 10.6 6.34196 10.6 6.26295C10.6 6.18393 10.5775 6.11928 10.55 6.11928C10.5225 6.11928 10.5 6.07618 10.5 6.0235C10.5 5.97083 10.4775 5.92773 10.45 5.92773C10.4225 5.92773 10.4 5.86308 10.4 5.78406C10.4 5.70505 10.3775 5.6404 10.35 5.6404C10.3225 5.6404 10.3 5.5973 10.3 5.54462C10.3 5.49194 10.2775 5.44884 10.25 5.44884C10.2225 5.44884 10.2 5.38419 10.2 5.30518C10.2 5.22616 10.1775 5.16151 10.15 5.16151C10.1225 5.16151 10.1 5.11841 10.1 5.06574C10.1 5.01306 10.0775 4.96996 10.05 4.96996C10.0225 4.96996 10 4.90531 10 4.82629C10 4.74728 9.9775 4.68263 9.95 4.68263C9.9225 4.68263 9.9 4.63953 9.9 4.58685C9.9 4.53418 9.8775 4.49108 9.85 4.49108C9.8225 4.49108 9.8 4.42643 9.8 4.34741C9.8 4.2684 9.7775 4.20375 9.75 4.20375C9.7225 4.20375 9.7 4.1391 9.7 4.06008C9.7 3.98107 9.6775 3.91642 9.65 3.91642C9.6225 3.91642 9.6 3.87332 9.6 3.82064C9.6 3.76796 9.5775 3.72486 9.55 3.72486C9.5225 3.72486 9.5 3.66021 9.5 3.5812C9.5 3.50218 9.4775 3.43753 9.45 3.43753C9.4225 3.43753 9.4 3.39443 9.4 3.34176C9.4 3.28908 9.3775 3.24598 9.35 3.24598C9.3225 3.24598 9.3 3.18133 9.3 3.10231C9.3 3.0233 9.2775 2.95865 9.25 2.95865C9.2225 2.95865 9.2 2.91555 9.2 2.86287C9.2 2.8102 9.1775 2.7671 9.15 2.7671C9.1225 2.7671 9.1 2.70245 9.1 2.62343C9.1 2.54442 9.0775 2.47977 9.05 2.47977C9.0225 2.47977 9 2.43667 9 2.38399C9 2.33131 8.9775 2.28821 8.95 2.28821C8.9225 2.28821 8.9 2.22356 8.9 2.14455C8.9 2.06553 8.8775 2.00088 8.85 2.00088C8.8225 2.00088 8.8 1.95778 8.8 1.90511C8.8 1.85243 8.7775 1.80933 8.75 1.80933C8.7225 1.80933 8.7 1.74468 8.7 1.66566C8.7 1.58665 8.6775 1.522 8.65 1.522C8.6225 1.522 8.6 1.4789 8.6 1.42622C8.6 1.37355 8.5775 1.33045 8.55 1.33045C8.5225 1.33045 8.5 1.2658 8.5 1.18678C8.5 1.10777 8.4775 1.04312 8.45 1.04312C8.4225 1.04312 8.4 1.00002 8.4 0.94734C8.4 0.894662 8.3775 0.851562 8.35 0.851562C8.3225 0.851562 8.3 0.889921 8.3 0.936756C8.3 0.983639 8.255 1.05303 8.2 1.091C8.145 1.12898 8.1 1.19837 8.1 1.24525C8.1 1.29209 8.0775 1.33045 8.05 1.33045C8.0225 1.33045 8 1.37355 8 1.42622C8 1.4789 7.9775 1.522 7.95 1.522C7.9225 1.522 7.9 1.56036 7.9 1.60719C7.9 1.65408 7.855 1.72347 7.8 1.76144C7.745 1.79942 7.7 1.86881 7.7 1.91569C7.7 1.96252 7.6775 2.00088 7.65 2.00088C7.6225 2.00088 7.6 2.04398 7.6 2.09666C7.6 2.14934 7.5775 2.19244 7.55 2.19244C7.5225 2.19244 7.5 2.2308 7.5 2.27763C7.5 2.32451 7.455 2.3939 7.4 2.43188C7.345 2.46985 7.3 2.53924 7.3 2.58613C7.3 2.63296 7.2775 2.67132 7.25 2.67132C7.2225 2.67132 7.2 2.71442 7.2 2.7671C7.2 2.81977 7.1775 2.86287 7.15 2.86287C7.1225 2.86287 7.1 2.90123 7.1 2.94807C7.1 2.99495 7.055 3.06434 7 3.10231C6.945 3.14029 6.9 3.20968 6.9 3.25656C6.9 3.3034 6.8775 3.34176 6.85 3.34176C6.8225 3.34176 6.8 3.38486 6.8 3.43753C6.8 3.49021 6.7775 3.53331 6.75 3.53331C6.7225 3.53331 6.7 3.57167 6.7 3.6185C6.7 3.66539 6.655 3.73478 6.6 3.77275C6.545 3.81073 6.5 3.88012 6.5 3.927C6.5 3.97383 6.4775 4.01219 6.45 4.01219C6.4225 4.01219 6.4 4.05529 6.4 4.10797C6.4 4.16065 6.3775 4.20375 6.35 4.20375C6.3225 4.20375 6.3 4.24211 6.3 4.28894C6.3 4.33582 6.255 4.40521 6.2 4.44319C6.145 4.48116 6.1 4.55055 6.1 4.59744C6.1 4.64427 6.06465 4.68263 6.02145 4.68263C5.9204 4.68263 5.8 4.56731 5.8 4.47053C5.8 4.42916 5.7775 4.3953 5.75 4.3953C5.7225 4.3953 5.7 4.3522 5.7 4.29952C5.7 4.24685 5.6775 4.20375 5.65 4.20375C5.6225 4.20375 5.6 4.16539 5.6 4.11855C5.6 4.07167 5.555 4.00228 5.5 3.9643C5.445 3.92633 5.4 3.85694 5.4 3.81006C5.4 3.76322 5.3775 3.72486 5.35 3.72486C5.3225 3.72486 5.3 3.68176 5.3 3.62909C5.3 3.57641 5.2775 3.53331 5.25 3.53331C5.2225 3.53331 5.2 3.49495 5.2 3.44812C5.2 3.40123 5.155 3.33184 5.1 3.29387C5.045 3.25589 5 3.1865 5 3.13962C5 3.09279 4.9775 3.05443 4.95 3.05443C4.9225 3.05443 4.9 3.01133 4.9 2.95865C4.9 2.90597 4.8775 2.86287 4.85 2.86287C4.8225 2.86287 4.8 2.82451 4.8 2.77768C4.8 2.7308 4.755 2.66141 4.7 2.62343C4.645 2.58546 4.6 2.51607 4.6 2.46918C4.6 2.42235 4.5775 2.38399 4.55 2.38399C4.5225 2.38399 4.5 2.34089 4.5 2.28821C4.5 2.23554 4.4775 2.19244 4.45 2.19244C4.4225 2.19244 4.4 2.15408 4.4 2.10724C4.4 2.06036 4.355 1.99097 4.3 1.95299C4.245 1.91502 4.2 1.84563 4.2 1.79875C4.2 1.75191 4.1775 1.71355 4.15 1.71355C4.1225 1.71355 4.1 1.67045 4.1 1.61778C4.1 1.5651 4.0775 1.522 4.05 1.522C4.0225 1.522 4 1.48364 4 1.43681C4 1.38992 3.955 1.32053 3.9 1.28256C3.845 1.24458 3.8 1.17519 3.8 1.12831C3.8 1.08147 3.7775 1.04312 3.75 1.04312C3.7225 1.04312 3.7 1.00002 3.7 0.94734C3.7 0.894662 3.6775 0.851562 3.65 0.851562C3.6225 0.851562 3.6 0.894662 3.6 0.94734Z" fill="black"/>
</svg>
