<svg width="27" height="19" viewBox="0 0 27 19" fill="none" xmlns="http://www.w3.org/2000/svg">
<path d="M17.6703 0.277503C17.3128 -0.092497 16.7178 -0.0924971 16.3478 0.277503C15.9903 0.635003 15.9903 1.23 16.3478 1.58667L23.0537 8.2925L0.925344 8.2925C0.40951 8.29333 -0.000489803 8.70333 -0.000489893 9.21917C-0.000489983 9.735 0.40951 10.1583 0.925343 10.1583L23.0537 10.1583L16.3478 16.8517C15.9903 17.2217 15.9903 17.8175 16.3478 18.1742C16.7178 18.5442 17.3137 18.5442 17.6703 18.1742L25.9637 9.88084C26.3337 9.52334 26.3337 8.92834 25.9637 8.57167L17.6703 0.277503Z" fill="url(#paint0_linear_1:21556)"/>
<defs>
<linearGradient id="paint0_linear_1:21556" x1="-0.000489894" y1="9.22583" x2="26.2412" y2="9.22584" gradientUnits="userSpaceOnUse">
<stop stop-color="#472297"/>
<stop offset="1" stop-color="#7449D0"/>
</linearGradient>
</defs>
</svg>
