<svg width="18" height="17" viewBox="0 0 18 17" fill="none" xmlns="http://www.w3.org/2000/svg">
<path d="M15.7546 11.3239C14.7554 11.3239 13.7743 11.1724 12.8446 10.8744C12.389 10.7237 11.829 10.862 11.5509 11.1389L9.71585 12.4823C7.58769 11.3806 6.27677 10.1098 5.15627 8.06153L6.5008 6.32835C6.85012 5.99005 6.97541 5.49588 6.8253 5.03221C6.51674 4.12589 6.35999 3.17493 6.35999 2.20555C6.36003 1.50526 5.77254 0.935547 5.05044 0.935547H2.05325C1.33115 0.935547 0.743652 1.50526 0.743652 2.20551C0.743652 10.2322 7.47748 16.7622 15.7546 16.7622C16.4767 16.7622 17.0642 16.1925 17.0642 15.4922V12.5938C17.0642 11.8936 16.4767 11.3239 15.7546 11.3239Z" fill="white"/>
</svg>
