<svg width="27" height="19" viewBox="0 0 27 19" fill="none" xmlns="http://www.w3.org/2000/svg">
<path d="M8.57087 18.1742C8.92837 18.5442 9.52337 18.5442 9.89337 18.1742C10.2509 17.8167 10.2509 17.2217 9.89337 16.865L3.18753 10.1592L25.3159 10.1592C25.8317 10.1583 26.2417 9.74833 26.2417 9.23249C26.2417 8.71666 25.8317 8.29333 25.3159 8.29333L3.18753 8.29332L9.89337 1.59999C10.2509 1.22999 10.2509 0.634158 9.89337 0.277491C9.52337 -0.092509 8.92753 -0.092509 8.57087 0.277491L0.277533 8.57082C-0.0924666 8.92832 -0.0924667 9.52332 0.277533 9.87999L8.57087 18.1742Z" fill="url(#paint0_linear_1:21555)"/>
<defs>
<linearGradient id="paint0_linear_1:21555" x1="26.2417" y1="9.22583" x2="3.32315e-05" y2="9.22582" gradientUnits="userSpaceOnUse">
<stop stop-color="#472297"/>
<stop offset="1" stop-color="#7449D0"/>
</linearGradient>
</defs>
</svg>
